<svg xmlns="http://www.w3.org/2000/svg" width="287.747" height="45.634" viewBox="0 0 287.747 45.634">
  <g id="Grupo_5788" data-name="Grupo 5788" transform="translate(-33.702 -23.27)">
    <g id="Grupo_5784" data-name="Grupo 5784" transform="translate(177.14 31.068)">
      <path id="Trazado_4856" data-name="Trazado 4856" d="M872.52,127.865c.024.006.045.027.038.076a5.855,5.855,0,0,1-1.252,1.141,13.314,13.314,0,0,1-1.881,1.107,11.564,11.564,0,0,1-2.008.814,5.441,5.441,0,0,1-1.926.2,1.982,1.982,0,0,1-1.064-.394.073.073,0,0,1-.021-.054.091.091,0,0,1,.068-.065,27.742,27.742,0,0,0,4.613-1.185,14.73,14.73,0,0,0,3.434-1.645" transform="translate(-737.63 -101.641)" fill="#fff"/>
      <path id="Trazado_4857" data-name="Trazado 4857" d="M867.378,125.22a21.316,21.316,0,0,1-4.359,1.8,12.137,12.137,0,0,1-4.5.682,2.437,2.437,0,0,1-1.5-.709c-.021-.019-.046-.038-.034-.066a.078.078,0,0,1,.07-.065l.349-.027c.768-.057,2.143-.095,3.747-.335a36.95,36.95,0,0,0,6.194-1.358c.03.007.048.03.026.083" transform="translate(-732.626 -99.8)" fill="#fff"/>
      <path id="Trazado_4858" data-name="Trazado 4858" d="M881.12,132.688c.026,0,.052.021.039.069a3.123,3.123,0,0,1-1.454,1.788,2.249,2.249,0,0,1-2.084.245.094.094,0,0,1-.044-.072.068.068,0,0,1,.058-.059,9.381,9.381,0,0,0,3.444-1.961.058.058,0,0,1,.041-.01" transform="translate(-746.518 -104.895)" fill="#fff"/>
      <path id="Trazado_4859" data-name="Trazado 4859" d="M881.768,81.929a.058.058,0,0,1,.033.05c-.007.025-.025.041-.067.038-.391-.112-1.222-.337-2.273-.622-2.4-.648-11.477-3.037-11.629-3.077l-.044-.014a3.011,3.011,0,0,1-1.334-.806,2.323,2.323,0,0,1-.28-.353,3.19,3.19,0,0,1-.395-1.26.088.088,0,0,1,.02-.059c.02-.019.041-.022.092-.015l1.484.573c3.523,1.349,12.872,4.934,14.393,5.544" transform="translate(-738.558 -66.517)" fill="#fff"/>
      <path id="Trazado_4860" data-name="Trazado 4860" d="M881.332,72.473c.012.059-.015.076-.063.066-.53-.267-1.738-.837-2.952-1.434-1.025-.507-8.033-3.772-8.51-4.011l-.839-.426c-.123-.06-.235-.13-.348-.2a2.33,2.33,0,0,1-.684-.57,2.947,2.947,0,0,1-.355-.645,3.473,3.473,0,0,1-.184-1.28.062.062,0,0,1,.036-.054c.016-.012.04-.015.087,0l.875.529.467.287,2.57,1.552c3.582,2.213,8.6,5.368,9.9,6.184" transform="translate(-739.647 -58.489)" fill="#fff"/>
      <path id="Trazado_4861" data-name="Trazado 4861" d="M885.118,91.748a.05.05,0,0,1,.041.049c0,.024-.024.039-.059.041-1.38-.1-13.8-.91-13.8-.91a1.469,1.469,0,0,1-.319-.056,2.723,2.723,0,0,1-1.8-1.824.126.126,0,0,1,0-.085.1.1,0,0,1,.079-.034s14.648,2.6,15.857,2.819" transform="translate(-740.849 -75.369)" fill="#fff"/>
      <path id="Trazado_4862" data-name="Trazado 4862" d="M891.3,100.17a.056.056,0,0,1,.047.054.059.059,0,0,1-.045.04c-.514.082-9.948,1.41-10.011,1.418a.965.965,0,0,1-.168.018,1.154,1.154,0,0,1-.16-.007,2.055,2.055,0,0,1-1.281-.678,2.376,2.376,0,0,1-.43-.685.051.051,0,0,1,0-.063.1.1,0,0,1,.063-.034s3.166-.023,5.165-.027c1.489,0,3.079-.009,4.367-.015,1.123,0,2.015-.008,2.454-.02" transform="translate(-747.639 -82.954)" fill="#fff"/>
      <path id="Trazado_4863" data-name="Trazado 4863" d="M896.474,103.156c.019,0,.055-.008.061.014s.034.042-.017.068c-.3.207-7.081,3.033-7.149,3.056a.794.794,0,0,1-1.091-.313c-.127-.213-.237-.387-.287-.468-.021-.03-.1-.112.1-.163,0,0,1.911-.519,3.61-.958,1.963-.5,4.185-1.07,4.771-1.236" transform="translate(-753.523 -84.968)" fill="#fff"/>
      <path id="Trazado_4864" data-name="Trazado 4864" d="M896.139,117.6c.027,0,.047.028.033.081-.654.76-3.066,3.428-4.155,4.6-.116.116-.172.065-.13-.055a7.184,7.184,0,0,0,.291-.923.978.978,0,0,1,.245-.552c1.415-1.2,2.777-2.4,3.676-3.14Z" transform="translate(-756.164 -94.717)" fill="#fff"/>
      <path id="Trazado_4865" data-name="Trazado 4865" d="M898.863,107.21c.031.009.047.029.031.086-.659.556-3.687,3.1-5.317,4.446l-.056.046c-.476.361-.794.448-.849-.337-.018-.188-.041-.343-.041-.343-.032-.165.021-.163.082-.2.53-.331,1.55-.9,2.36-1.393,1.447-.869,3.138-1.9,3.789-2.3" transform="translate(-756.669 -87.704)" fill="#fff"/>
      <path id="Trazado_4866" data-name="Trazado 4866" d="M707.445,67.315l-2.984-.823c-.821-.224-1.57-.583-1.57-1.586,0-1.044.629-1.555,1.958-1.555H707.5c1.175,0,2.572-.389,2.574-2.3l-5,.006c-3.076,0-4.837,1.556-4.837,3.782,0,2.073,1.316,3.237,3.662,3.861l2.6.688a1.688,1.688,0,0,1,1.457,1.652c0,1.046-.662,1.681-2.277,1.69l-4.982.039v2.258h5.067c3.078,0,4.837-1.651,4.837-3.827s-.86-3.265-3.162-3.889m24.479-6.262c-3.026,0-5.108,1.747-5.108,5.346v8.632h2.439V66.315a2.648,2.648,0,0,1,2.878-2.962h.724c2.137,0,2.486-1.1,2.486-2.3Zm-10.851,0,.009,9.694c0,1.413-1.167,2.121-2.712,2.121-1.626,0-2.689-.707-2.689-2.121l-.019-7.253a2.152,2.152,0,0,0-2.433-2.441V71.341c0,2.6,2.335,3.871,5.062,3.871,2.646,0,5.241-1.275,5.239-3.871l0-7.533c0-2.033-.763-2.756-2.454-2.756m21.289,0h-.614c-3.244,0-6.295,2.394-6.428,7.05-.12,4.234,2.086,7.2,5.816,7.2a4.539,4.539,0,0,0,4.142-2.135c.177,1.431.95,1.866,2.49,1.866V63.043h0v-1.99Zm2.774,8.236a3.457,3.457,0,0,1-3.521,3.774c-2.155,0-3.7-1.445-3.6-4.933.1-3.343,1.705-4.813,3.833-4.813.165,0,.325-.009.474-.02v0h2.813ZM718.492,55.182h1.4a1.867,1.867,0,1,0,0-3.729h-2.331V57.6h.933Zm0-2.892h1.345a1.024,1.024,0,1,1,0,2.045h-1.345Zm8.109-.232a2.324,2.324,0,0,0-3.239,0c-.6.6-.595,1.285-.595,2.467s-.007,1.865.595,2.47a2.324,2.324,0,0,0,3.239,0c.6-.6.586-1.286.586-2.47s.018-1.865-.586-2.467m-.708,4.375a1.288,1.288,0,0,1-1.831,0c-.3-.328-.363-.674-.363-1.908s.061-1.58.363-1.908a1.29,1.29,0,0,1,1.831,0c.3.328.363.672.363,1.908s-.061,1.581-.363,1.908m-9.846-.906V51.452h-.933v4.031a1.275,1.275,0,1,1-2.547,0V51.452h-.932v4.075a2.207,2.207,0,0,0,4.412,0m-13.593,2.124a2.232,2.232,0,0,0,1.693-.7,2.3,2.3,0,0,0,.553-1.735v-.941h-2.246v.794h1.312v.345a1.389,1.389,0,0,1-.31.968,1.31,1.31,0,0,1-1,.433,1.223,1.223,0,0,1-.906-.374c-.3-.326-.371-.682-.371-1.916s.069-1.58.371-1.908a1.233,1.233,0,0,1,.906-.381,1.257,1.257,0,0,1,1.3,1.071h.94a2.161,2.161,0,0,0-2.236-1.907,2.2,2.2,0,0,0-1.615.657c-.6.6-.594,1.285-.594,2.467s-.009,1.865.594,2.47a2.228,2.228,0,0,0,1.615.657m4.552-2.642h1.165l1.3,2.588h1.087l-1.415-2.72a1.612,1.612,0,0,0,1.225-1.631,1.757,1.757,0,0,0-1.907-1.795h-2.383V57.6h.933Zm0-2.72h1.38a.965.965,0,1,1,0,1.924h-1.38Z" transform="translate(-626.868 -50.048)" fill="#fff"/>
      <path id="Trazado_4867" data-name="Trazado 4867" d="M479.515,52.779a4.244,4.244,0,0,1-.1.875,2.352,2.352,0,0,1-.37.855,2.112,2.112,0,0,1-.744.651,3,3,0,0,1-2.428,0,2.117,2.117,0,0,1-.739-.651,2.357,2.357,0,0,1-.369-.855,4.243,4.243,0,0,1-.1-.875V48.625h.674V52.7a3.125,3.125,0,0,0,.093.818,1.977,1.977,0,0,0,.248.576,1.375,1.375,0,0,0,.345.37,1.755,1.755,0,0,0,.384.21,1.592,1.592,0,0,0,.369.1,2.537,2.537,0,0,0,.309.023,2.6,2.6,0,0,0,.3-.023,1.6,1.6,0,0,0,.374-.1,1.744,1.744,0,0,0,.384-.21,1.37,1.37,0,0,0,.346-.37,1.967,1.967,0,0,0,.248-.576,3.11,3.11,0,0,0,.094-.818V48.625h.674Z" transform="translate(-474.668 -48.176)" fill="#fff"/>
      <path id="Trazado_4868" data-name="Trazado 4868" d="M494.547,55.3c.012.118.02.236.023.35s0,.233,0,.352h.019a1.429,1.429,0,0,1,.263-.329,1.717,1.717,0,0,1,.355-.257,1.955,1.955,0,0,1,.416-.169,1.618,1.618,0,0,1,.435-.06,1.6,1.6,0,0,1,1.244.444,1.826,1.826,0,0,1,.4,1.268v2.779h-.618V57.25a2.056,2.056,0,0,0-.253-1.118,1.034,1.034,0,0,0-.936-.388,2.551,2.551,0,0,0-.262.037,1.144,1.144,0,0,0-.454.207,1.482,1.482,0,0,0-.426.5,1.939,1.939,0,0,0-.187.936v2.245h-.617V56.259q0-.178-.014-.45t-.033-.514Z" transform="translate(-487.652 -52.601)" fill="#fff"/>
      <path id="Trazado_4869" data-name="Trazado 4869" d="M512.388,56.988v-.112a1,1,0,0,0-1.123-1.133,1.934,1.934,0,0,0-1.338.515l-.375-.44a2.472,2.472,0,0,1,1.853-.636,2.031,2.031,0,0,1,.613.094,1.4,1.4,0,0,1,.51.285,1.428,1.428,0,0,1,.346.483,1.686,1.686,0,0,1,.131.692V58.69c0,.169.008.346.023.53s.033.334.052.453h-.6c-.018-.105-.032-.221-.042-.345s-.014-.247-.014-.366h-.02a1.669,1.669,0,0,1-.641.632,1.939,1.939,0,0,1-.9.191,1.98,1.98,0,0,1-.561-.079,1.431,1.431,0,0,1-.482-.243,1.245,1.245,0,0,1-.338-.4,1.175,1.175,0,0,1-.126-.556,1.2,1.2,0,0,1,.276-.838,1.685,1.685,0,0,1,.693-.454,3.436,3.436,0,0,1,.888-.187q.473-.037.866-.038Zm-.318.505q-.235,0-.585.023a3.416,3.416,0,0,0-.674.112,1.484,1.484,0,0,0-.552.276.629.629,0,0,0-.229.515.727.727,0,0,0,.089.369.741.741,0,0,0,.239.253,1,1,0,0,0,.332.14,1.625,1.625,0,0,0,.37.042,1.4,1.4,0,0,0,.585-.112,1.191,1.191,0,0,0,.664-.753,1.842,1.842,0,0,0,.08-.547v-.318Z" transform="translate(-498.073 -52.6)" fill="#fff"/>
      <path id="Trazado_4870" data-name="Trazado 4870" d="M532.937,57.653a1.874,1.874,0,0,0,.159.618,1.62,1.62,0,0,0,.842.832,1.509,1.509,0,0,0,.609.122A1.558,1.558,0,0,0,535.4,59a1.709,1.709,0,0,0,.547-.529l.477.393a2.369,2.369,0,0,1-.866.711,2.422,2.422,0,0,1-1.015.215,2.333,2.333,0,0,1-.9-.173,2.1,2.1,0,0,1-.715-.482,2.265,2.265,0,0,1-.473-.729,2.393,2.393,0,0,1-.173-.917,2.448,2.448,0,0,1,.168-.917,2.223,2.223,0,0,1,.468-.73,2.153,2.153,0,0,1,.7-.482,2.182,2.182,0,0,1,.87-.173,2.136,2.136,0,0,1,.889.178,1.971,1.971,0,0,1,.659.472,2.048,2.048,0,0,1,.408.693,2.52,2.52,0,0,1,.14.847v.281Zm2.976-.505a1.316,1.316,0,0,0-1.422-1.4,1.493,1.493,0,0,0-.58.117,1.631,1.631,0,0,0-.492.314,1.557,1.557,0,0,0-.337.449,1.148,1.148,0,0,0-.127.524Z" transform="translate(-513.541 -52.601)" fill="#fff"/>
      <path id="Trazado_4871" data-name="Trazado 4871" d="M548.868,56.269c0-.162,0-.324-.014-.487s-.021-.324-.033-.486h.665v.664h.019a1.452,1.452,0,0,1,.622-.58,1.776,1.776,0,0,1,.79-.2,2.1,2.1,0,0,1,.379.037,1.37,1.37,0,0,1,.388.136,1.3,1.3,0,0,1,.35.276,1.456,1.456,0,0,1,.276.459,1.438,1.438,0,0,1,.594-.665,1.625,1.625,0,0,1,.847-.243,1.6,1.6,0,0,1,1.245.444,1.828,1.828,0,0,1,.4,1.268v2.779h-.618V57.121a1.854,1.854,0,0,0-.234-1.02.965.965,0,0,0-.87-.355,1.142,1.142,0,0,0-.58.136,1.112,1.112,0,0,0-.379.36,1.591,1.591,0,0,0-.21.51,2.635,2.635,0,0,0-.065.594v2.33h-.617V57.121a1.858,1.858,0,0,0-.234-1.02.966.966,0,0,0-.87-.355,1.954,1.954,0,0,0-.258.037.978.978,0,0,0-.416.206,1.5,1.5,0,0,0-.388.505,2.076,2.076,0,0,0-.173.936v2.246h-.618Z" transform="translate(-524.7 -52.601)" fill="#fff"/>
      <path id="Trazado_4872" data-name="Trazado 4872" d="M573.472,55.3h.618v.73h.019a1.6,1.6,0,0,1,.355-.384,2.231,2.231,0,0,1,.431-.263,2.064,2.064,0,0,1,.463-.149,2.388,2.388,0,0,1,.454-.047,2.475,2.475,0,0,1,.94.173,2.168,2.168,0,0,1,1.217,1.212,2.522,2.522,0,0,1,0,1.834,2.173,2.173,0,0,1-1.217,1.212,2.475,2.475,0,0,1-.94.173,2.386,2.386,0,0,1-.454-.047,2.065,2.065,0,0,1-.463-.15,2.214,2.214,0,0,1-.431-.262,1.606,1.606,0,0,1-.355-.384h-.019v3.425h-.618Zm4,2.189a1.972,1.972,0,0,0-.117-.683,1.642,1.642,0,0,0-.332-.552,1.571,1.571,0,0,0-.52-.37,1.673,1.673,0,0,0-.687-.136,1.778,1.778,0,0,0-.7.136,1.75,1.75,0,0,0-.552.37,1.683,1.683,0,0,0-.365.552,1.849,1.849,0,0,0,0,1.366,1.688,1.688,0,0,0,.365.552,1.726,1.726,0,0,0,.552.369,1.762,1.762,0,0,0,.7.137,1.657,1.657,0,0,0,.687-.137,1.55,1.55,0,0,0,.52-.369,1.646,1.646,0,0,0,.332-.552,1.969,1.969,0,0,0,.117-.683" transform="translate(-541.333 -52.601)" fill="#fff"/>
      <path id="Trazado_4873" data-name="Trazado 4873" d="M591.171,56.661c0-.194,0-.39-.014-.589s-.017-.458-.023-.776h.608v.815h.019a1.379,1.379,0,0,1,.187-.342,1.5,1.5,0,0,1,.295-.295,1.44,1.44,0,0,1,.4-.211,1.593,1.593,0,0,1,.519-.079,1.666,1.666,0,0,1,.459.056l-.122.607a1.046,1.046,0,0,0-.355-.046,1.275,1.275,0,0,0-.609.136,1.358,1.358,0,0,0-.421.346,1.424,1.424,0,0,0-.248.454,1.487,1.487,0,0,0-.08.468v2.47h-.617Z" transform="translate(-553.25 -52.601)" fill="#fff"/>
      <path id="Trazado_4874" data-name="Trazado 4874" d="M600.044,57.653a1.88,1.88,0,0,0,.159.618,1.62,1.62,0,0,0,.842.832,1.51,1.51,0,0,0,.609.122,1.56,1.56,0,0,0,.856-.229,1.712,1.712,0,0,0,.547-.529l.477.393a2.373,2.373,0,0,1-.865.711,2.425,2.425,0,0,1-1.015.215,2.333,2.333,0,0,1-.9-.173,2.1,2.1,0,0,1-.715-.482,2.265,2.265,0,0,1-.473-.729,2.394,2.394,0,0,1-.173-.917,2.448,2.448,0,0,1,.168-.917,2.222,2.222,0,0,1,.468-.73,2.157,2.157,0,0,1,.7-.482,2.182,2.182,0,0,1,.87-.173,2.136,2.136,0,0,1,.889.178,1.971,1.971,0,0,1,.659.472,2.049,2.049,0,0,1,.408.693,2.538,2.538,0,0,1,.14.847v.281Zm2.976-.505a1.4,1.4,0,0,0-.374-1.016,1.389,1.389,0,0,0-1.048-.388,1.5,1.5,0,0,0-.58.117,1.634,1.634,0,0,0-.492.314,1.558,1.558,0,0,0-.337.449,1.152,1.152,0,0,0-.127.524Z" transform="translate(-558.82 -52.601)" fill="#fff"/>
      <path id="Trazado_4875" data-name="Trazado 4875" d="M617.636,56.333a1.148,1.148,0,0,0-.375-.431.991.991,0,0,0-.571-.159,1.463,1.463,0,0,0-.323.038,1,1,0,0,0-.295.117.658.658,0,0,0-.211.2.537.537,0,0,0-.079.3.5.5,0,0,0,.215.449,2.112,2.112,0,0,0,.645.244l.627.149a1.489,1.489,0,0,1,.762.417,1.076,1.076,0,0,1,.3.781,1.233,1.233,0,0,1-.144.613,1.254,1.254,0,0,1-.384.421,1.655,1.655,0,0,1-.547.238,2.673,2.673,0,0,1-.627.075,2.3,2.3,0,0,1-.94-.192,1.726,1.726,0,0,1-.744-.66l.533-.365a1.468,1.468,0,0,0,.472.477,1.255,1.255,0,0,0,.679.178,1.683,1.683,0,0,0,.374-.043,1.089,1.089,0,0,0,.333-.131.714.714,0,0,0,.233-.229.6.6,0,0,0,.089-.328.507.507,0,0,0-.244-.472,2.1,2.1,0,0,0-.589-.229l-.6-.141c-.075-.019-.176-.049-.3-.094a1.435,1.435,0,0,1-.374-.2,1.17,1.17,0,0,1-.313-.342.964.964,0,0,1-.131-.519,1.226,1.226,0,0,1,.136-.59,1.148,1.148,0,0,1,.365-.412,1.673,1.673,0,0,1,.519-.238,2.267,2.267,0,0,1,.6-.08,2.041,2.041,0,0,1,.851.178,1.251,1.251,0,0,1,.609.608Z" transform="translate(-569.32 -52.6)" fill="#fff"/>
      <path id="Trazado_4876" data-name="Trazado 4876" d="M630.666,56.988v-.112a1,1,0,0,0-1.123-1.133,1.935,1.935,0,0,0-1.338.515l-.374-.44a2.471,2.471,0,0,1,1.853-.636,2.027,2.027,0,0,1,.613.094,1.4,1.4,0,0,1,.51.285,1.422,1.422,0,0,1,.346.483,1.68,1.68,0,0,1,.131.692V58.69c0,.169.007.346.023.53s.033.334.052.453h-.6c-.018-.105-.032-.221-.042-.345s-.014-.247-.014-.366h-.019a1.675,1.675,0,0,1-.641.632,1.939,1.939,0,0,1-.9.191,1.978,1.978,0,0,1-.561-.079,1.434,1.434,0,0,1-.482-.243,1.242,1.242,0,0,1-.337-.4,1.174,1.174,0,0,1-.126-.556,1.2,1.2,0,0,1,.276-.838,1.685,1.685,0,0,1,.692-.454,3.436,3.436,0,0,1,.888-.187c.315-.025.6-.038.866-.038Zm-.318.505q-.234,0-.585.023a3.415,3.415,0,0,0-.674.112,1.484,1.484,0,0,0-.552.276.629.629,0,0,0-.229.515.727.727,0,0,0,.089.369.74.74,0,0,0,.239.253,1.007,1.007,0,0,0,.332.14,1.626,1.626,0,0,0,.37.042,1.405,1.405,0,0,0,.585-.112,1.19,1.19,0,0,0,.664-.753,1.844,1.844,0,0,0,.08-.547v-.318Z" transform="translate(-577.878 -52.6)" fill="#fff"/>
      <path id="Trazado_4877" data-name="Trazado 4877" d="M655,54.317h-.618v-.73h-.019a1.62,1.62,0,0,1-.355.384,2.216,2.216,0,0,1-.431.262,2.065,2.065,0,0,1-.463.15,2.387,2.387,0,0,1-.454.047,2.482,2.482,0,0,1-.94-.173,2.175,2.175,0,0,1-1.216-1.212,2.521,2.521,0,0,1,0-1.834A2.169,2.169,0,0,1,651.72,50a2.482,2.482,0,0,1,.94-.173,2.388,2.388,0,0,1,.454.047,2.064,2.064,0,0,1,.463.149,2.234,2.234,0,0,1,.431.263,1.614,1.614,0,0,1,.355.384h.019V47.244H655Zm-4-2.189a1.967,1.967,0,0,0,.117.683,1.65,1.65,0,0,0,.332.552,1.549,1.549,0,0,0,.52.369,1.658,1.658,0,0,0,.687.137,1.772,1.772,0,0,0,.7-.137,1.7,1.7,0,0,0,.556-.369,1.674,1.674,0,0,0,.366-.552,1.849,1.849,0,0,0,0-1.366,1.67,1.67,0,0,0-.366-.552,1.724,1.724,0,0,0-.556-.37,1.789,1.789,0,0,0-.7-.136,1.673,1.673,0,0,0-.687.136,1.57,1.57,0,0,0-.52.37,1.646,1.646,0,0,0-.332.552,1.97,1.97,0,0,0-.117.683" transform="translate(-593.191 -47.244)" fill="#fff"/>
      <path id="Trazado_4878" data-name="Trazado 4878" d="M668.789,57.653a1.875,1.875,0,0,0,.159.618,1.62,1.62,0,0,0,.842.832,1.51,1.51,0,0,0,.609.122,1.56,1.56,0,0,0,.856-.229,1.711,1.711,0,0,0,.547-.529l.477.393a2.372,2.372,0,0,1-.865.711,2.424,2.424,0,0,1-1.015.215,2.333,2.333,0,0,1-.9-.173,2.1,2.1,0,0,1-.715-.482,2.268,2.268,0,0,1-.473-.729,2.394,2.394,0,0,1-.173-.917,2.449,2.449,0,0,1,.168-.917,2.222,2.222,0,0,1,.468-.73,2.153,2.153,0,0,1,.7-.482,2.182,2.182,0,0,1,.87-.173,2.136,2.136,0,0,1,.889.178,1.97,1.97,0,0,1,.659.472,2.047,2.047,0,0,1,.408.693,2.52,2.52,0,0,1,.14.847v.281Zm2.976-.505a1.316,1.316,0,0,0-1.422-1.4,1.494,1.494,0,0,0-.58.117,1.635,1.635,0,0,0-.492.314,1.558,1.558,0,0,0-.337.449,1.152,1.152,0,0,0-.127.524Z" transform="translate(-605.203 -52.601)" fill="#fff"/>
    </g>
    <g id="Grupo_5785" data-name="Grupo 5785" transform="translate(33.702 28.909)">
      <path id="Trazado_4879" data-name="Trazado 4879" d="M42.835,71.223c-.209.416-.551,1.1-.761,1.511L39.99,76.842a1.514,1.514,0,0,1-1.228.754H34.25a.481.481,0,0,1-.467-.757L49.791,44.822c.207-.416.548-.416.756,0L66.555,76.839a.482.482,0,0,1-.467.757h-4.6a1.5,1.5,0,0,1-1.222-.758L50.546,57.355c-.207-.416-.548-.417-.757,0L45.6,65.691,44.845,67.2Z" transform="translate(-33.702 -43.24)" fill="#fff"/>
      <path id="Trazado_4880" data-name="Trazado 4880" d="M116.3,64.641c-.232,0-.252.34-.042.756l5.3,10.521a.48.48,0,0,1-.466.756h-4.513a1.5,1.5,0,0,1-1.224-.757l-7.628-15.293a.479.479,0,0,1,.469-.752l5.486.037a5.654,5.654,0,0,0,5.575-5.616,5.2,5.2,0,0,0-1.677-3.9,5.318,5.318,0,0,0-3.9-1.635H102.625A1.506,1.506,0,0,1,101.4,48L99.35,43.9a.482.482,0,0,1,.468-.757h13.864a11.162,11.162,0,0,1,11.15,11.149,10.6,10.6,0,0,1-1.971,6.328,13.126,13.126,0,0,1-1.642,1.934,6.545,6.545,0,0,1-4.86,2.087Z" transform="translate(-77.942 -42.318)" fill="#fff"/>
      <path id="Trazado_4881" data-name="Trazado 4881" d="M216.02,62.717a13.354,13.354,0,0,1-4.107,9.891,13.936,13.936,0,0,1-23.806-9.891V43.99a.849.849,0,0,1,.846-.846h3.884a.848.848,0,0,1,.845.846V61.871a11.047,11.047,0,0,0,.155,1.676s.641,3.444,2.234,5.038a8.35,8.35,0,0,0,11.861,0c1.634-1.635,2.342-5.04,2.342-5.04a9.882,9.882,0,0,0,.172-1.674V43.99a.849.849,0,0,1,.847-.846h3.881a.848.848,0,0,1,.846.846Z" transform="translate(-137.881 -42.318)" fill="#fff"/>
      <path id="Trazado_4882" data-name="Trazado 4882" d="M293.94,62.717a9.427,9.427,0,0,1-6.916-2.85,9.594,9.594,0,0,1-2.85-6.958,9.471,9.471,0,0,1,2.85-6.874,9.3,9.3,0,0,1,6.916-2.892h14.109a.849.849,0,0,1,.846.846V47.9a.849.849,0,0,1-.846.846H294.786c-.465,0-1.225.031-1.688.071a2.951,2.951,0,0,0-.793.234,3.814,3.814,0,0,0-1.383.923,4.305,4.305,0,0,0,0,5.909,4.049,4.049,0,0,0,3.017,1.258h7.494a10.815,10.815,0,0,1,1.678.159s4.2.805,6.083,2.69a9.766,9.766,0,0,1-6.915,16.681H286.139a.849.849,0,0,1-.846-.846V71.9a.848.848,0,0,1,.846-.846l15.294,0c.466,0,1.226-.028,1.69-.062a2.817,2.817,0,0,0,.792-.231,3.9,3.9,0,0,0,1.383-.88,3.723,3.723,0,0,0,.88-1.341,4.223,4.223,0,0,0,.335-1.635,4.167,4.167,0,0,0-1.258-2.934,4.727,4.727,0,0,0-2.146-1.094,10.482,10.482,0,0,0-1.676-.163Z" transform="translate(-202.7 -42.318)" fill="#fff"/>
      <path id="Trazado_4883" data-name="Trazado 4883" d="M372.169,40.606a2.773,2.773,0,0,1,1.329.349,2.48,2.48,0,0,1,1.009,1,2.719,2.719,0,0,1,.006,2.7,2.524,2.524,0,0,1-1,1,2.717,2.717,0,0,1-2.689,0,2.526,2.526,0,0,1-1-1,2.708,2.708,0,0,1,.006-2.7,2.492,2.492,0,0,1,1.011-1,2.773,2.773,0,0,1,1.329-.349m0,.448a2.308,2.308,0,0,0-1.109.291,2.107,2.107,0,0,0-.842.835,2.292,2.292,0,0,0-.3,1.13,2.261,2.261,0,0,0,.3,1.119,2.116,2.116,0,0,0,.836.835,2.251,2.251,0,0,0,2.241,0,2.111,2.111,0,0,0,.834-.835,2.268,2.268,0,0,0,.3-1.119,2.293,2.293,0,0,0-.3-1.13,2.084,2.084,0,0,0-.844-.835,2.3,2.3,0,0,0-1.107-.291M371.107,44.8a.122.122,0,0,1-.123-.122V42.017a.122.122,0,0,1,.123-.122h.754c.068,0,.177,0,.245.005a3.578,3.578,0,0,1,.619.075.723.723,0,0,1,.365.281.742.742,0,0,1,.136.426.778.778,0,0,1-.228.555.9.9,0,0,1-.6.265.792.792,0,0,1,.247.154,3.271,3.271,0,0,1,.429.576l.291.465c.036.057.01.1-.058.1h-.329a.231.231,0,0,1-.181-.106l-.138-.246c-.033-.058-.089-.153-.125-.21a3.679,3.679,0,0,0-.426-.573.6.6,0,0,0-.375-.1h-.154a.124.124,0,0,0-.123.122v.991a.122.122,0,0,1-.121.122Zm.346-1.758a.123.123,0,0,0,.123.123h.325c.068,0,.178-.006.244-.012a1.2,1.2,0,0,0,.435-.111.4.4,0,0,0,.148-.323.381.381,0,0,0-.072-.23.414.414,0,0,0-.2-.153,1.491,1.491,0,0,0-.471-.05h-.411a.123.123,0,0,0-.123.123Z" transform="translate(-260.249 -40.606)" fill="#fff"/>
    </g>
    <rect id="Rectángulo_2455" data-name="Rectángulo 2455" width="1.301" height="45.634" transform="translate(160.429 23.27)" fill="#fff"/>
  </g>
</svg>
